<?xml version="1.0" encoding="UTF-8"?>
<svg width="540px" height="160px" viewBox="0 0 540 160" version="1.1" xmlns="http://www.w3.org/2000/svg" xmlns:xlink="http://www.w3.org/1999/xlink">
    <!-- Generator: Sketch 51 (57462) - http://www.bohemiancoding.com/sketch -->
    <title>adstream@2x</title>
    <desc>Created with Sketch.</desc>
    <defs></defs>
    <g id="Client-logos" stroke="none" stroke-width="1" fill="none" fill-rule="evenodd">
        <g id="White" transform="translate(-120.000000, 0.000000)" fill="#FFFFFF" fill-rule="nonzero">
            <g id="adstream" transform="translate(120.000000, 0.000000)">
                <path d="M123.523821,35.57804 C118.708609,32.2895256 112.988136,30.5836191 107.158248,30.6976504 C98.3409385,30.4778667 89.8674884,34.1203807 83.9601299,40.6699131 C77.8868765,47.4266357 74.6580565,56.2680075 74.9476772,65.3484164 C74.6597503,74.4285535 77.8883469,83.2693135 83.9601299,90.0269197 C89.9300486,96.4641836 98.3819074,100.020365 107.158248,99.7876989 C113.165384,99.9786347 119.049088,98.0557806 123.784109,94.3541985 L123.784109,98.3073141 L140.946812,98.3073141 L140.946812,0 L123.523821,5.41723243 L123.523821,35.57804 Z M108.199398,84.1379163 C98.8778541,84.1379163 92.6146874,76.5733125 92.6146874,65.3158805 C92.6146874,54.0584486 98.8778541,46.5101127 108.199398,46.5101127 C117.520942,46.5101127 123.784109,53.8957689 123.784109,65.3158805 C123.784109,76.7359921 117.667354,84.1379163 108.199398,84.1379163 Z M183.438737,57.6862048 C196.989953,60.7933862 203.855034,67.886219 203.88757,78.655612 C203.88757,91.4096968 193.524876,99.6412872 177.484662,99.6412872 C166.113354,99.6412872 156.938222,95.3465444 150.203284,86.8546665 L149.471226,85.9273925 L160.679854,74.4096731 L161.623396,75.6460384 C165.533327,81.1464795 171.891647,84.3803475 178.639688,84.300596 C181.763137,84.300596 186.985154,83.6498774 186.985154,79.1924549 C186.985154,77.6795341 186.188024,75.9388618 180.233948,74.3120653 L171.872214,72.2623017 C158.418607,69.1388523 151.586062,61.9484117 151.586062,50.9187313 C151.586062,38.847901 161.346841,30.7139184 175.988009,30.7139184 C185.469096,30.6600977 194.520925,34.6620832 200.861728,41.7110629 L201.740198,42.6383369 L190.352623,54.8393109 L189.392813,53.5378737 C185.716253,48.5110724 181.210026,46.0708776 175.613846,46.0708776 C171.449247,46.0708776 168.30953,48.0555694 168.30953,50.6747118 C168.30953,52.0574888 168.846373,54.1397884 173.499011,55.3110819 L183.438737,57.6862048 Z M230.062726,9.54929561 L230.062726,32.324447 L245.175666,32.324447 L245.175666,48.2019811 L230.062726,48.2019811 L230.062726,72.4412493 C230.062726,80.8843233 231.575647,82.5924596 239.058911,82.5924596 L245.191934,82.2508323 L245.191934,98.1283664 L243.9393,98.2097063 C242.2637,98.323582 239.595754,98.4699937 235.967997,98.4699937 C219.065581,98.4699937 212.786147,92.0116115 212.786147,74.6374246 L212.786147,14.982796 L230.062726,9.54929561 Z M290.481949,31.4297089 C291.486871,31.4104402 292.492015,31.453906 293.491522,31.5598526 L294.679084,31.7062643 L294.679084,48.4948044 L293.052287,48.1694451 C292.373282,48.0761579 291.687321,48.0434931 291.002524,48.0718373 C277.711596,48.0718373 272.831207,54.6115594 272.831207,72.1809618 L272.831207,98.323582 L255.424484,98.323582 L255.424484,32.324447 L272.587187,32.324447 L272.587187,37.2048365 C276.979538,33.3818647 282.982417,31.4297089 290.481949,31.4297089 Z M358.482044,64.5512861 L358.319364,71.0747402 L315.209256,71.0747402 C316.331746,78.8833635 322.025534,83.7637531 330.387268,83.7637531 C336.567335,83.8997244 342.349132,80.7234581 345.549011,75.4345549 L346.427481,74.1331177 L358.43324,85.3580137 L357.684913,86.3178237 C351.310267,94.9671358 341.129557,99.9786173 330.387268,99.755163 C320.496345,99.755163 312.492506,96.6642496 306.424555,90.3034751 C300.356604,83.9427007 297.26569,75.6785744 297.26569,65.7225796 C297.01874,56.7455259 299.964403,47.9719473 305.578621,40.9627365 C311.138156,34.2571823 319.48512,30.4980462 328.191092,30.7789903 C350.543277,30.7789903 358.482044,48.9665754 358.482044,64.5512861 Z M316.185334,56.6125191 L340.034171,56.6125191 C339.448524,51.6345217 336.129859,46.8517399 328.2887,46.8517399 C322.432233,46.8517399 318.007346,50.4957642 316.185334,56.6125191 Z M414.443844,36.3100985 L414.443844,32.324447 L431.606547,32.324447 L431.606547,98.3723859 L414.183557,98.3723859 L414.183557,95.0211851 C409.33067,98.205819 403.63838,99.8710264 397.834252,99.8039669 C389.053092,100.037098 380.596047,96.4812275 374.619865,90.0431877 C368.551914,83.4383938 365.607412,75.3532151 365.607412,65.3484164 C365.317792,56.2680075 368.546612,47.4266357 374.619865,40.6699131 C380.547168,34.1479204 389.024584,30.5359594 397.834252,30.7789903 C403.847427,30.6223712 409.725082,32.5796704 414.443844,36.3100985 Z M398.745258,84.3982038 C409.579723,84.3982038 414.443844,74.8326402 414.460112,65.3321485 C414.460112,54.1397884 408.278285,46.9168118 398.745258,46.9168118 C389.21223,46.9168118 383.290691,53.7493572 383.290691,65.3321485 C383.290691,76.9149397 389.358642,84.3982038 398.745258,84.3982038 Z M48.821325,36.3100985 L48.821325,32.324447 L66.0165642,32.324447 L66.0165642,98.3561179 L48.5773055,98.3561179 L48.5773055,95.0049171 C43.724419,98.1895511 38.0321286,99.8547584 32.2280004,99.7876989 C23.4520593,100.01824 15.0010407,96.4624115 9.02988195,90.0269197 C2.96193091,83.4221258 0.0174291972,75.3369471 0.0174291972,65.3321485 C-0.267960875,56.2573024 2.96057758,47.4225292 9.02988195,40.6699131 C14.9497012,34.1566579 23.4133096,30.5455183 32.2117324,30.7789903 C38.2247021,30.6237549 44.1018979,32.5809014 48.821325,36.3100985 Z M33.1390065,84.3982038 C43.9409354,84.3982038 48.821325,74.8326402 48.821325,65.3321485 C48.821325,54.1397884 42.6720341,46.9168118 33.1390065,46.9168118 C23.6059788,46.9168118 17.6844395,53.7493572 17.6844395,65.3321485 C17.6844395,76.9149397 23.7523905,84.3982038 33.1390065,84.3982038 Z M513.450681,30.7789903 C530.824868,30.7789903 540,40.9464686 540,60.1914715 L540,98.2585102 L522.577009,98.2585102 L522.577009,59.0527139 C522.577009,51.2115546 518.802841,46.7053283 512.295655,46.7053283 C504.893731,46.7053283 500.468844,52.0086849 500.468844,60.874726 L500.468844,98.2910461 L483.175997,98.2910461 L483.175997,59.0852498 C483.175997,51.2440906 479.401829,46.7378642 472.894643,46.7378642 C465.443915,46.7378642 461.181708,51.9110771 461.181708,60.9072619 L461.181708,98.323582 L443.758718,98.323582 L443.758718,32.324447 L460.921421,32.324447 L460.921421,35.9359353 C465.133451,32.415267 470.499574,30.578268 475.985557,30.7789903 C483.729108,30.7789903 489.569308,33.251721 493.782711,38.3273261 C499.02568,33.2197747 506.136814,30.4906051 513.450681,30.7789903 Z" id="Combined-Shape"></path>
            </g>
        </g>
    </g>
</svg>