<?xml version="1.0" encoding="UTF-8"?>
<svg width="463px" height="160px" viewBox="0 0 463 160" version="1.1" xmlns="http://www.w3.org/2000/svg" xmlns:xlink="http://www.w3.org/1999/xlink">
    <!-- Generator: Sketch 51 (57462) - http://www.bohemiancoding.com/sketch -->
    <title>trainline@2x</title>
    <desc>Created with Sketch.</desc>
    <defs></defs>
    <g id="Client-logos" stroke="none" stroke-width="1" fill="none" fill-rule="evenodd">
        <g id="White" transform="translate(-159.000000, 0.000000)" fill="#FFFFFF">
            <g id="trainline" transform="translate(159.000000, 0.000000)">
                <path d="M291.955105,83.7796459 C291.017903,83.8697961 289.961218,83.9298963 288.956806,83.9298963 C283.949685,83.9298963 281.317306,82.0743034 281.317306,76.3760554 L281.317306,2.71202046 L263.932403,2.71202046 L263.932403,79.4261393 C263.932403,92.01337 271.833274,99.5672109 284.479895,99.5672109 C287.732097,99.5672109 290.188984,99.1915848 291.955105,98.7521023 L291.955105,83.7796459 Z M29.1055242,29.5692868 L29.1055242,13.9695347 L13.3037823,13.9695347 L13.3037823,23.1122741 C13.3037823,25.5838938 12.7325,27.8188691 11.5563306,29.5692868 L29.1055242,29.5692868 Z M36.7450242,83.9298963 C38.8509274,83.9298963 41.2219355,83.666958 42.1479355,83.4002635 L42.1479355,97.9745563 C40.5647742,98.6356582 37.4021855,99.5672109 32.2681129,99.5672109 C19.6252258,99.5672109 11.720621,92.0096138 11.720621,79.4261393 L11.720621,53.0196243 L29.1055242,53.0196243 L29.1055242,76.3760554 C29.1055242,82.0743034 31.7416371,83.9298963 36.7450242,83.9298963 L36.7450242,83.9298963 Z M5.08179839,49.0830628 L0,49.0830628 L0,33.4983358 L28.7582742,33.4983358 C27.0070887,38.3364 24.0647984,42.1302236 20.0135484,44.7859002 C15.9847016,47.4227954 10.966379,48.8689559 5.08179839,49.0830628 L5.08179839,49.0830628 Z M42.1479355,33.4983358 L42.1479355,49.0830628 L21.6863226,49.0830628 C23.5308548,47.978722 25.1886935,46.6903245 26.6337016,45.2328952 C29.7290806,42.1264674 32.0216774,38.178637 33.45175,33.4983358 L42.1479355,33.4983358 Z M91.7785484,50.3789728 C89.7771935,49.9770529 88.0484113,49.8418275 86.4503145,49.8418275 C77.3919435,49.8418275 69.535879,54.266703 69.535879,68.4691259 L69.535879,98.6168769 L51.8223952,98.6168769 L51.8223952,32.6907397 L68.9982016,32.6907397 L68.9982016,42.4720434 C72.9934435,33.7650303 82.0555484,32.1573506 87.6488871,32.1573506 C89.1125645,32.1573506 90.4455565,32.292576 91.7785484,32.4240451 L91.7785484,50.3789728 Z M97.1478548,80.6619492 C97.1478548,90.976642 105.672282,100.491251 119.659363,100.491251 C129.378629,100.491251 135.640331,95.9311503 138.970944,90.7061912 C138.970944,93.2529362 139.236048,96.8739718 139.635573,98.6168769 L155.881645,98.6168769 C155.485855,96.3368265 155.086331,91.6452564 155.086331,88.1632025 L155.086331,55.7391573 C155.086331,42.4720434 147.360952,30.6848963 126.58196,30.6848963 C109.002895,30.6848963 99.545,42.0701235 98.4808468,52.3885725 L114.192976,55.7391573 C114.726919,49.9770529 118.991,45.0187884 126.716379,45.0187884 C134.172919,45.0187884 137.772371,48.9065185 137.772371,53.5943323 C137.772371,55.8706265 136.573798,57.748757 132.843661,58.282146 L116.728274,60.6974219 C105.802968,62.3051016 97.1478548,68.8672896 97.1478548,80.6619492 L97.1478548,80.6619492 Z M123.385766,87.2278935 C117.658008,87.2278935 114.861339,83.4753887 114.861339,79.5914148 C114.861339,74.4979249 118.46079,71.9511799 122.989976,71.2825654 L137.772371,69.002515 L137.772371,71.9511799 C137.772371,83.6068578 130.84604,87.2278935 123.385766,87.2278935 L123.385766,87.2278935 Z M173.822895,0 C179.946444,0 184.744468,4.95826455 184.744468,11.1222889 C184.744468,17.0158624 179.946444,21.974127 173.822895,21.974127 C167.830032,21.974127 162.897589,17.0158624 162.897589,11.1222889 C162.897589,4.95826455 167.830032,0 173.822895,0 L173.822895,0 Z M165.029629,98.6131206 L182.746847,98.6131206 L182.746847,32.6907397 L165.029629,32.6907397 L165.029629,98.6131206 Z M211.975589,60.6974219 C211.975589,53.0571869 216.504774,47.028388 224.230153,47.028388 C232.750847,47.028388 236.346565,52.7904924 236.346565,60.1602765 L236.346565,98.6168769 L254.063782,98.6168769 L254.063782,57.0801425 C254.063782,42.6072688 246.603508,30.9515908 230.357435,30.9515908 C223.296685,30.9515908 215.436887,34.0317249 211.445379,40.8643637 L211.445379,32.6907397 L194.262105,32.6907397 L194.262105,98.6168769 L211.975589,98.6168769 L211.975589,60.6974219 Z M310.434032,0 C316.561315,0 321.355605,4.95826455 321.355605,11.1222889 C321.355605,17.0158624 316.561315,21.974127 310.434032,21.974127 C304.441169,21.974127 299.51246,17.0158624 299.51246,11.1222889 C299.51246,4.95826455 304.441169,0 310.434032,0 L310.434032,0 Z M301.640766,98.6131206 L319.357984,98.6131206 L319.357984,32.6907397 L301.640766,32.6907397 L301.640766,98.6131206 Z M348.086387,60.6974219 C348.086387,53.0571869 352.611839,47.028388 360.340952,47.028388 C368.861645,47.028388 372.457363,52.7904924 372.457363,60.1602765 L372.457363,98.6168769 L390.174581,98.6168769 L390.174581,57.0801425 C390.174581,42.6072688 382.714306,30.9515908 366.4645,30.9515908 C359.40375,30.9515908 351.547685,34.0317249 347.54871,40.8643637 L347.54871,32.6907397 L330.369169,32.6907397 L330.369169,98.6168769 L348.086387,98.6168769 L348.086387,60.6974219 Z M462.066532,79.722884 C458.735919,91.1118674 448.34829,100.626477 432.232903,100.626477 C414.254315,100.626477 398.400298,87.6260571 398.400298,65.3852356 C398.400298,44.3501739 413.851056,30.6848963 430.631073,30.6848963 C450.876121,30.6848963 463,43.6815594 463,64.8480903 C463,67.3948353 462.734895,70.0768056 462.734895,70.3435002 L415.848677,70.3435002 C416.248202,79.0542695 423.574056,85.349763 432.363589,85.349763 C440.622911,85.349763 445.152097,81.1953383 447.284137,75.3017647 L462.066532,79.722884 Z M445.551621,58.1506769 C445.282782,51.5847326 441.022435,45.1540138 430.899911,45.1540138 C421.710855,45.1540138 416.647726,52.121878 416.248202,58.1506769 L445.551621,58.1506769 Z" id="Fill-1"></path>
            </g>
        </g>
    </g>
</svg>